<?xml version="1.0" encoding="utf-8"?><svg xmlns="http://www.w3.org/2000/svg" xmlns:xlink="http://www.w3.org/1999/xlink"><symbol viewBox="0 0 30 30" id="account" xmlns="http://www.w3.org/2000/svg"><path fill-rule="evenodd" clip-rule="evenodd" d="M12.347 2.5a6.627 6.627 0 00-6.648 6.647 6.628 6.628 0 006.648 6.648 6.627 6.627 0 006.647-6.648A6.627 6.627 0 0012.347 2.5zm0 1.875a4.752 4.752 0 014.772 4.772 4.752 4.752 0 01-4.772 4.773 4.753 4.753 0 01-4.773-4.773 4.752 4.752 0 014.773-4.772zm0 13.695c-6.288 0-9.847 1.193-9.847 4.574 0 3.384 3.575 4.6 9.847 4.6l.804-.007c5.784-.101 9.042-1.334 9.042-4.567 0-3.31-3.42-4.546-9.441-4.598l-.405-.002zm0 1.875c5.251 0 7.97.925 7.97 2.725 0 1.79-2.712 2.699-7.97 2.699-5.252 0-7.972-.925-7.972-2.725 0-1.741 2.567-2.649 7.55-2.697l.422-.002zM24.005 9.9c.475 0 .867.353.929.81l.008.127v1.569h1.62a.937.937 0 01.128 1.866l-.128.009h-1.62v1.569a.938.938 0 01-1.866.127l-.009-.127v-1.57H21.45a.938.938 0 01-.127-1.866l.127-.009h1.617v-1.569c0-.517.42-.937.938-.937z"/></symbol><symbol viewBox="0 0 15 15" id="arrow" xmlns="http://www.w3.org/2000/svg"><path d="M3.75 5.625c.146 0 .288.05.4.144l3.35 2.8 3.356-2.7a.624.624 0 01.996.31.625.625 0 01-.208.665l-3.75 3.019a.625.625 0 01-.794 0L3.35 6.738a.625.625 0 01-.081-.882.625.625 0 01.481-.231z"/></symbol><symbol viewBox="0 0 24 24" id="tel" xmlns="http://www.w3.org/2000/svg"><path d="M19.5 21.75h-.128C4.635 20.902 2.542 8.467 2.25 4.672A2.25 2.25 0 014.32 2.25h4.132a1.5 1.5 0 011.395.945L10.987 6a1.5 1.5 0 01-.33 1.62L9.06 9.232a7.027 7.027 0 005.685 5.7l1.627-1.612A1.5 1.5 0 0118 13.012l2.827 1.133a1.5 1.5 0 01.923 1.395v3.96a2.25 2.25 0 01-2.25 2.25zm-15-18a.75.75 0 00-.75.75v.06C4.095 9 6.307 19.5 19.455 20.25a.75.75 0 00.795-.705V15.54l-2.828-1.132-2.152 2.137-.36-.045C8.385 15.682 7.5 9.158 7.5 9.09l-.045-.36 2.13-2.153L8.46 3.75H4.5z"/></symbol></svg>