<svg width="30" height="30" fill="none" xmlns="http://www.w3.org/2000/svg"><path fill-rule="evenodd" clip-rule="evenodd" d="M3.597 3.139l-.127-.014a.938.938 0 00-.956.778l-.014.126a.938.938 0 00.778.957l1.886.327 1.143 13.62.024.204a3.19 3.19 0 003.156 2.72h13.64l.206-.006a3.193 3.193 0 002.953-2.729l1.187-8.198.02-.188a2.614 2.614 0 00-2.607-2.8H7.265l-.293-3.502-.022-.138a.938.938 0 00-.753-.707l-2.6-.45zm5.745 16.836a1.316 1.316 0 01-1.167-1.2l-.753-8.964h17.464l.11.008c.395.059.68.428.62.837l-1.185 8.197-.03.147c-.15.573-.67.983-1.274.983H9.487l-.145-.008zm-1.957 5.757a1.893 1.893 0 113.787 0 1.893 1.893 0 01-3.787 0zm14.065 0a1.895 1.895 0 013.787 0 1.893 1.893 0 01-3.787 0zm.61-12.238a.938.938 0 00-.937-.938h-3.466l-.128.009a.938.938 0 00.128 1.866h3.466l.127-.008a.938.938 0 00.81-.93z" fill="#333"/></svg>