<svg width="25" height="25" fill="none" xmlns="http://www.w3.org/2000/svg"><path fill-rule="evenodd" clip-rule="evenodd" d="M4.134 14.496L14.228 4.6a3.374 3.374 0 014.704 0l1.349 1.321a3.216 3.216 0 010 4.611l-10.134 9.934a3.121 3.121 0 01-2.186.887h-4.15a.679.679 0 01-.686-.69l.105-4.104c.02-.776.344-1.516.904-2.064zm15.177-7.623l-1.349-1.321c-.763-.748-2-.748-2.763 0l-.784.768 4.112 4.03.784-.768a1.89 1.89 0 000-2.709zM5.104 15.447l8.34-8.176 4.113 4.03-8.38 8.215-.112.1a1.74 1.74 0 01-1.104.393H4.514l.087-3.415c.012-.43.192-.843.503-1.148zm16.771 5.235a.68.68 0 00-.686-.673h-7.157l-.093.006a.677.677 0 00-.593.667.68.68 0 00.686.672h7.157l.093-.006a.677.677 0 00.593-.666z" fill="#3FCF5E"/></svg>