<svg width="26" height="26" fill="none" xmlns="http://www.w3.org/2000/svg"><path fill-rule="evenodd" clip-rule="evenodd" d="M12.514.5C5.88.5.5 5.76.5 12.25c0 6.488 5.379 11.748 12.014 11.748 2.838 0 5.446-.962 7.502-2.571l3.905 3.809.104.087a.94.94 0 001.205-.089.89.89 0 00-.002-1.28l-3.86-3.764c1.963-2.09 3.16-4.879 3.16-7.94C24.529 5.76 19.15.5 12.515.5zm0 1.81c5.614 0 10.164 4.45 10.164 9.94 0 5.488-4.55 9.939-10.164 9.939-5.613 0-10.163-4.45-10.163-9.94 0-5.49 4.55-9.94 10.163-9.94z" fill="#333"/></svg>