<svg width="25" height="25" fill="none" xmlns="http://www.w3.org/2000/svg"><g clip-path="url(#clip0)"><path d="M16.334 0H8.659C1.656 0-.004 1.66-.004 8.663v7.674c0 7.004 1.66 8.664 8.663 8.664h7.675c7.003 0 8.663-1.66 8.663-8.664V8.663C24.997 1.66 23.32 0 16.334 0zm3.845 17.834h-1.815c-.687 0-.9-.545-2.136-1.798-1.074-1.042-1.55-1.18-1.815-1.18-.374 0-.48.106-.48.619v1.64c0 .44-.139.704-1.303.704-1.925 0-4.06-1.164-5.558-3.333-2.259-3.178-2.877-5.559-2.877-6.05 0-.266.106-.513.614-.513h1.82c.46 0 .634.211.813.704.9 2.596 2.397 4.87 3.015 4.87.228 0 .334-.106.334-.688v-2.68c-.07-1.238-.72-1.344-.72-1.783 0-.212.174-.423.455-.423h2.86c.387 0 .529.211.529.667v3.617c0 .39.175.529.28.529.228 0 .424-.138.846-.562 1.307-1.465 2.243-3.723 2.243-3.723.122-.265.333-.513.793-.513h1.82c.544 0 .666.28.544.671-.228 1.058-2.453 4.2-2.453 4.2-.192.317-.265.455 0 .809.195.265.83.814 1.253 1.306.777.883 1.375 1.624 1.534 2.136.179.509-.085.774-.598.774h.002z" fill="#E0E0E0"/></g><defs><clipPath id="clip0"><path fill="#fff" d="M0 0h25v25H0z"/></clipPath></defs></svg>